<svg id="Capa_1" enable-background="new 0 0 512 512" height="512" viewBox="0 0 512 512" width="512" xmlns="http://www.w3.org/2000/svg"><g><g><g><g><path d="m283.127 20.586-11.624-8.178c-9.3-6.543-21.706-6.543-31.006 0l-11.624 8.178c-45.109 31.737-98.094 50.426-153.133 54.014-14.169.924-25.19 12.686-25.19 26.885v70.456c0 117.303 54.775 227.879 148.092 298.956l33.583 25.579c14.045 10.698 33.505 10.698 47.55 0l33.583-25.579c93.317-71.077 148.092-181.652 148.092-298.956v-70.456c0-14.2-11.021-25.962-25.19-26.885-55.039-3.588-108.024-22.277-153.133-54.014z" fill="#eaf2ff"/><g><path d="m436.26 74.6c-15.618-1.018-31.069-3.255-46.223-6.658 9.153 4.335 15.417 13.651 15.417 24.355v70.456c0 117.303-54.775 227.879-148.092 298.956l-33.583 25.579c-.612.466-1.238.905-1.87 1.33l10.316 7.858c14.045 10.698 33.505 10.698 47.55 0l33.583-25.579c93.317-71.077 148.092-181.652 148.092-298.956v-70.456c0-14.2-11.02-25.962-25.19-26.885z" fill="#e8e8e8"/></g><path d="m226.479 433.075c-40.19-30.611-73.286-70.719-95.711-115.989-22.425-45.269-34.278-95.901-34.278-146.42v-44.332c0-4.816 3.777-8.761 8.586-9.02 62.551-3.374 128.108-42.08 146.112-53.442 2.944-1.858 6.68-1.858 9.624 0 18.003 11.362 83.56 50.068 146.112 53.442 4.809.259 8.586 4.204 8.586 9.02v44.332c0 50.52-11.853 101.151-34.278 146.42-22.425 45.27-55.521 85.378-95.71 115.989l-24.046 18.315c-3.235 2.464-7.717 2.464-10.952 0z" fill="#b3e59f"/></g></g><g><path d="m406.924 117.313c-62.551-3.374-128.108-42.08-146.112-53.442-1.528-.964-3.27-1.417-5.003-1.38v390.732c1.993.042 3.996-.56 5.667-1.833l24.046-18.315c40.189-30.611 73.285-70.719 95.71-115.989 22.425-45.269 34.278-95.901 34.278-146.42v-44.332c0-4.817-3.777-8.762-8.586-9.021z" fill="#95d6a4"/><g><path d="m436.26 74.6c-15.618-1.018-31.069-3.255-46.223-6.658 9.153 4.335 15.417 13.651 15.417 24.355v70.456c0 117.303-54.775 227.879-148.092 298.956l-33.583 25.579c-.612.466-1.238.905-1.87 1.33l10.316 7.858c14.045 10.698 33.505 10.698 47.55 0l33.583-25.579c93.317-71.077 148.092-181.652 148.092-298.956v-70.456c0-14.2-11.02-25.962-25.19-26.885z" fill="#c9e0fd"/></g><path d="m381.232 317.086c22.425-45.269 34.278-95.901 34.278-146.42v-44.332c0-4.816-3.777-8.761-8.586-9.02-.49-.026-.98-.061-1.47-.092v45.532c0 91.584-33.39 179.067-92.443 246.853 27.874-26.573 51.144-58.048 68.221-92.521z" fill="#77ce8e"/></g></g><g><g><path d="m436.766 67.104c-53.686-3.499-105.32-21.712-149.32-52.669l-11.626-8.179c-11.855-8.342-27.786-8.342-39.641 0l-11.625 8.179c-44 30.957-95.634 49.17-149.32 52.669-18.059 1.177-32.205 16.276-32.205 34.373v70.463c0 58.71 13.775 117.549 39.835 170.158 26.061 52.609 64.522 99.22 111.227 134.794 27.294 18.457 37.395 35.108 61.909 35.108s34.614-16.65 61.908-35.108c46.705-35.574 85.166-82.185 111.227-134.794s39.835-111.448 39.835-170.158v-70.463c.001-18.098-14.146-33.196-32.204-34.373zm17.203 104.836c0 56.412-13.236 112.949-38.277 163.499s-61.997 95.337-106.874 129.519l-33.586 25.582c-11.324 8.625-27.142 8.625-38.466 0l-33.586-25.582c-44.877-34.182-81.834-78.969-106.874-129.519-25.04-50.549-38.275-107.087-38.275-163.499v-70.463c0-10.216 7.985-18.739 18.179-19.403 56.439-3.679 110.72-22.825 156.976-55.37 9.286-5.756 13.427-11.71 22.814-11.71 9.395 0 13.561 5.975 22.813 11.71 46.256 32.545 100.538 51.691 156.977 55.37 10.194.665 18.18 9.187 18.18 19.403v70.463z"/><path d="m407.342 109.817c-60.525-3.264-124.393-40.856-142.526-52.3-5.37-3.39-12.302-3.363-17.632 0-18.133 11.444-82.001 49.036-142.526 52.3-8.795.474-15.684 7.727-15.684 16.511v37.5c0 4.143 3.358 7.501 7.501 7.501s7.501-3.358 7.501-7.501v-37.5c0-.814.655-1.486 1.49-1.531 57.865-3.121 117.786-35.328 142.843-50.363v365.866l-17.287-13.168c-39.28-29.918-71.627-69.119-93.544-113.363-17.557-35.443-28.706-75.143-32.24-114.808-.367-4.126-4.006-7.174-8.137-6.805-4.126.367-7.173 4.011-6.805 8.137 3.697 41.5 15.364 83.042 33.739 120.136 22.937 46.303 56.789 87.327 97.897 118.638l24.047 18.317c5.728 4.363 13.989 4.612 20.043 0l24.048-18.317c11.381-8.669 22.355-18.21 32.615-28.36 2.945-2.913 2.971-7.662.058-10.607-2.912-2.944-7.661-2.971-10.607-.058-9.803 9.697-20.285 18.811-31.155 27.091l-17.67 13.459v-366.387c24.829 14.936 85.068 47.455 143.225 50.592.836.045 1.49.717 1.49 1.531v44.336c0 49.375-11.585 98.861-33.502 143.105-10.53 21.258-23.536 41.476-38.657 60.093-2.612 3.216-2.122 7.94 1.093 10.551s7.939 2.122 10.551-1.093c15.821-19.479 29.432-40.64 40.455-62.892 22.937-46.303 35.061-98.091 35.061-149.764v-44.336c-.001-8.785-6.89-16.037-15.685-16.511z"/></g></g></g></svg>